<svg xmlns="http://www.w3.org/2000/svg" version="1.1" xmlns:xlink="http://www.w3.org/1999/xlink" xmlns:svgjs="http://svgjs.dev/svgjs" width="300" height="300" viewBox="0 0 1500 1500"><rect width="1500" height="1500" fill="#000000"></rect><g transform="matrix(0.6666666666666666,0,0,0.6666666666666666,249.39393939393938,435.99032258064517)"><svg viewBox="0 0 396 248" data-background-color="#ffffff" preserveAspectRatio="xMidYMid meet" height="939" width="1500" xmlns="http://www.w3.org/2000/svg" xmlns:xlink="http://www.w3.org/1999/xlink"><g id="tight-bounds" transform="matrix(1,0,0,1,0.2400000000000091,0.4000000000000057)"><svg viewBox="0 0 395.52 247.2" height="247.2" width="395.52"><g><svg></svg></g><g><svg viewBox="0 0 395.52 247.2" height="247.2" width="395.52"><g transform="matrix(1,0,0,1,75.54432,66.75365386960752)"><svg viewBox="0 0 244.43135999999998 113.69269226078494" height="113.69269226078494" width="244.43135999999998"><g><svg viewBox="0 0 244.43135999999998 113.69269226078494" height="113.69269226078494" width="244.43135999999998"><g><svg viewBox="0 0 244.43135999999998 113.69269226078494" height="113.69269226078494" width="244.43135999999998"><g><svg viewBox="0 0 244.43135999999998 113.69269226078494" height="113.69269226078494" width="244.43135999999998"><g id="textblocktransform"><svg viewBox="0 0 244.43135999999998 113.69269226078494" height="113.69269226078494" width="244.43135999999998" id="textblock"><g><svg viewBox="0 0 244.43135999999998 113.69269226078494" height="113.69269226078494" width="244.43135999999998"><g transform="matrix(1,0,0,1,0,0)"><svg width="244.43135999999998" viewBox="0.49 -35.01 75.26 35.01" height="113.69269226078494" data-palette-color="#3d3839"><path d="M0.49-30.4L0.49-30.4 0.49-32.69Q0.49-33.69 1.15-34.35 1.81-35.01 2.81-35.01L2.81-35.01 33.79-35.01Q34.79-35.01 35.45-34.35 36.11-33.69 36.11-32.69L36.11-32.69 36.11-30.4Q36.11-29.39 35.45-28.75 34.79-28.1 33.79-28.1L33.79-28.1 22.9-28.1 22.9-2.25Q22.9-1.29 22.23-0.65 21.56 0 20.61 0L20.61 0 15.99 0Q15.04 0 14.37-0.65 13.7-1.29 13.7-2.25L13.7-2.25 13.7-28.1 2.81-28.1Q1.81-28.1 1.15-28.75 0.49-29.39 0.49-30.4ZM40.09-2.29L40.09-2.29 40.09-32.69Q40.09-33.64 40.74-34.33 41.4-35.01 42.36-35.01L42.36-35.01 60.98-35.01Q75.75-35.01 75.75-21.4 75.75-7.79 60.98-7.79L60.98-7.79 49.29-7.79 49.29-2.29Q49.29-1.34 48.62-0.67 47.95 0 46.99 0L46.99 0 42.4 0Q41.45 0 40.77-0.67 40.09-1.34 40.09-2.29ZM49.29-28.1L49.29-14.7 58.2-14.7Q62.3-14.7 64.43-16.08 66.55-17.46 66.55-21.4 66.55-25.34 64.43-26.72 62.3-28.1 58.2-28.1L58.2-28.1 49.29-28.1Z" opacity="1" transform="matrix(1,0,0,1,0,0)" fill="#ffffff" class="wordmark-text-0" data-fill-palette-color="primary" id="text-0"></path></svg></g></svg></g></svg></g></svg></g></svg></g></svg></g></svg></g><g><path d="M245.816 0c68.262 0 123.6 55.338 123.6 123.6 0 68.262-55.338 123.6-123.6 123.6-42.16 0-79.39-21.109-101.698-53.334l6.301 0c21.574 29.241 56.27 48.207 95.397 48.208 65.431 0 118.474-53.042 118.473-118.474 0-65.431-53.042-118.474-118.473-118.474-39.126 0-73.822 18.967-95.397 48.208l-6.301 0c22.308-32.225 59.537-53.334 101.698-53.334z" fill="#ffffff" stroke="transparent" data-fill-palette-color="tertiary"></path></g></svg></g><defs></defs></svg><rect width="395.52" height="247.2" fill="none" stroke="none" visibility="hidden"></rect></g></svg></g></svg>