<svg xmlns="http://www.w3.org/2000/svg" version="1.1" xmlns:xlink="http://www.w3.org/1999/xlink" xmlns:svgjs="http://svgjs.dev/svgjs" width="1500" height="1323" viewBox="0 0 1500 1323"><g transform="matrix(1,0,0,1,-2.22363974546829,-2.132885855648169)"><svg viewBox="0 0 281 248" data-background-color="#ffffff" preserveAspectRatio="xMidYMid meet" height="1323" width="1500" xmlns="http://www.w3.org/2000/svg" xmlns:xlink="http://www.w3.org/1999/xlink"><g id="tight-bounds" transform="matrix(1,0,0,1,0.4166278073458045,0.40002634420793015)"><svg viewBox="0 0 280.16681034700315 247.2" height="247.2" width="280.16681034700315"><g><svg viewBox="0 0 280.16681034700315 247.2" height="247.2" width="280.16681034700315"><g><svg viewBox="0 0 280.16681034700315 247.2" height="247.2" width="280.16681034700315"><g id="textblocktransform"><svg viewBox="0 0 280.16681034700315 247.2" height="247.2" width="280.16681034700315" id="textblock"><g><svg viewBox="0 0 280.16681034700315 247.2" height="247.2" width="280.16681034700315"><path d="M279.511 53.02C278.194 27.36 274.44 20.227 274.44 20.227 262.915-6.202 248.532-0.506 235.611 3.292 212.799 3.446 190.078 9.091 167.318 12.119 119.546 12.581 71.366 4.986 23.831 23.717 19.366 29.464-4.632 24.846 0.794 56.304 2.217 69.39 7.406 83.913 7.248 95.922 7.959 98.026 8.947 93.202 9.369 96.23 10.844 104.39 13.254 100.541 15.23 105.365 12.477 118.246 14.453 128.971 16.336 140.21 13.017 143.135 8.763 141.749 6.853 151.449 6.655 158.479 5.589 157.145 4.416 156.837 3.56 156.632 1.835 157.402 2.125 159.608 3.112 167.152-1.129 171.514 1.532 178.904-0.299 186.91 2.796 193.838 2.375 202.511 2.322 204.255 2.612 205.744 3.073 206.154 5.114 208.361 2.138 212.672 2.454 217.342 23.396 249.262 46.116 227.195 67.572 241.872 73.144 231.608 68.955 245.516 71.181 243.36 72.92 240.846 74.184 251.263 76.147 245.362 76.45 243.668 75.989 239.665 77.069 240.435 77.635 240.846 78.136 240.743 78.215 238.382 78.333 234.841 77.293 237.048 77.016 235.201 80.006 225.861 79.268 248.081 82.074 247.158 81.942 244.438 81.126 240.538 82.798 241.051 84.458 237.151 84.511 233.918 85.986 242.693 86.038 244.592 86.302 245.926 86.723 246.85 91.333 237.305 95.917 250.237 100.751 245.926 103.714 241.205 106.559 248.492 109.562 246.696 110.616 245.259 111.683 242.693 112.697 247.004 125.118 247.928 138.355 244.079 150.13 247.158 181.596 241.41 215.222 249.518 248.4 241.923 256.224 238.998 264.351 234.841 271.977 231.506 271.977 231.506 278.154 222.371 278.154 181.316S279.471 145.393 279.669 112.703C279.867 80.013 280.788 78.679 279.471 53.02Z" opacity="1" fill="#1877f2" data-fill-palette-color="tertiary"></path><g transform="matrix(1,0,0,1,55.76832,26.230666666666668)"><svg width="168.63017034700314" viewBox="1.3 -31.55 27.45 31.7" height="194.73866666666666" data-palette-color="#ffffff"><path d="M8.95 0.15L8.95 0.15Q8.45 0.15 8.25-0.2 8.05-0.55 8.05-0.95L8.05-0.95Q8.1-1.8 8.45-1.9 8.8-2 9.3-2L9.3-2Q10.9-2 11.55-2.58 12.2-3.15 12.38-4.03 12.55-4.9 12.55-5.85L12.55-5.85 12.55-29.7 9.1-29.7Q7.4-29.65 6.45-28.98 5.5-28.3 5.05-26.88 4.6-25.45 4.25-23.2L4.25-23.2Q4.2-22.75 3.63-22.53 3.05-22.3 2.5-22.3L2.5-22.3Q2.15-22.3 1.73-22.55 1.3-22.8 1.3-23.3L1.3-23.3 1.45-30.35Q1.45-31.05 1.85-31.3 2.25-31.55 2.8-31.55L2.8-31.55 27.25-31.55Q27.8-31.55 28.18-31.3 28.55-31.05 28.55-30.35L28.55-30.35 28.75-23.3Q28.75-22.8 28.33-22.55 27.9-22.3 27.5-22.3L27.5-22.3Q27-22.3 26.45-22.53 25.9-22.75 25.8-23.2L25.8-23.2Q25.45-25.45 24.98-26.88 24.5-28.3 23.58-28.98 22.65-29.65 20.9-29.7L20.9-29.7 17.5-29.7 17.5-5.85Q17.55-4.9 17.7-4.03 17.85-3.15 18.53-2.58 19.2-2 20.75-2L20.75-2Q21.25-2 21.6-1.9 21.95-1.8 22-0.95L22-0.95Q22-0.55 21.8-0.2 21.6 0.15 21.1 0.15L21.1 0.15Q19.5 0.05 18.07 0.03 16.65 0 15.2 0L15.2 0Q12.2 0 8.95 0.15Z" opacity="1" transform="matrix(1,0,0,1,0,0)" fill="#ffffff" class="wordmark-text-0" data-fill-palette-color="quaternary" id="text-0"></path></svg></g></svg></g></svg></g></svg></g><g></g></svg></g><defs></defs></svg><rect width="280.16681034700315" height="247.2" fill="none" stroke="none" visibility="hidden"></rect></g></svg></g></svg>