<svg xmlns="http://www.w3.org/2000/svg" version="1.1" xmlns:xlink="http://www.w3.org/1999/xlink" xmlns:svgjs="http://svgjs.dev/svgjs" width="1500" height="2619" viewBox="0 0 1500 2619"><g transform="matrix(1,0,0,1,-5.000131258202487,-4.22419354838712)"><svg viewBox="0 0 142 248" data-background-color="#ffffff" preserveAspectRatio="xMidYMid meet" height="2619" width="1500" xmlns="http://www.w3.org/2000/svg" xmlns:xlink="http://www.w3.org/1999/xlink"><g id="tight-bounds" transform="matrix(1,0,0,1,0.4733457591098329,0.4000000000000057)"><svg viewBox="0 0 141.05330848178033 247.2" height="247.2" width="141.05330848178033"><g><svg viewBox="0 0 211.5746026969482 370.7906064" height="247.2" width="141.05330848178033"><g><svg viewBox="0 0 211.5746026969482 370.7906064" height="370.7906064" width="211.5746026969482"><g id="textblocktransform"><svg viewBox="0 0 211.5746026969482 370.7906064" height="370.7906064" width="211.5746026969482" id="textblock"><g><rect width="211.5746026969482" height="247.2" fill="none" stroke-width="9.018103199999999" stroke="#1d597d" data-fill-palette-color="none" data-stroke-palette-color="tertiary"></rect><rect width="211.5746026969482" height="123.5906064" y="247.2" fill="#1d597d" data-fill-palette-color="tertiary"></rect></g><g><svg viewBox="0 0 211.5746026969482 247.2" height="247.2" width="211.5746026969482"><g transform="matrix(1,0,0,1,23.607599999999998,23.607599999999998)"><svg width="164.3594026969482" viewBox="1.12 -34.4 28.27 34.4" height="199.9848" data-palette-color="#1d597d"><path d="M29.39-30.59L17.58-30.59 17.58 0 12.94 0 12.94-30.59 1.12-30.59 1.12-34.4 29.39-34.4 29.39-30.59Z" opacity="1" transform="matrix(1,0,0,1,0,0)" fill="#1d597d" class="wordmark-text-0" data-fill-palette-color="primary" id="text-0"></path></svg></g></svg></g></svg></g></svg></g></svg></g><defs></defs></svg><rect width="141.05330848178033" height="247.2" fill="none" stroke="none" visibility="hidden"></rect></g></svg></g></svg>